<?xml version="1.0" encoding="UTF-8" standalone="no"?>
<!DOCTYPE svg PUBLIC "-//W3C//DTD SVG 1.1//EN"
 "http://www.w3.org/Graphics/SVG/1.1/DTD/svg11.dtd">
<!-- Generated by graphviz version 12.2.1 (20241206.2353)
 -->
<!-- Title: packages_emailfilter Pages: 1 -->
<svg width="1017pt" height="260pt"
 viewBox="0.00 0.00 1016.93 260.00" xmlns="http://www.w3.org/2000/svg" xmlns:xlink="http://www.w3.org/1999/xlink">
<g id="graph0" class="graph" transform="scale(1 1) rotate(0) translate(4 256)">
<title>packages_emailfilter</title>
<polygon fill="white" stroke="none" points="-4,4 -4,-256 1012.93,-256 1012.93,4 -4,4"/>
<!-- emailfilter -->
<g id="node1" class="node">
<title>emailfilter</title>
<polygon fill="none" stroke="black" points="92.3,-180 19.3,-180 19.3,-144 92.3,-144 92.3,-180"/>
<text text-anchor="middle" x="55.8" y="-156.95" font-family="Times,serif" font-size="14.00">emailfilter</text>
</g>
<!-- emailfilter.categorizer -->
<g id="node2" class="node">
<title>emailfilter.categorizer</title>
<polygon fill="none" stroke="black" points="454.8,-180 318.8,-180 318.8,-144 454.8,-144 454.8,-180"/>
<text text-anchor="middle" x="386.8" y="-156.95" font-family="Times,serif" font-size="14.00">emailfilter.categorizer</text>
</g>
<!-- emailfilter.cli -->
<g id="node3" class="node">
<title>emailfilter.cli</title>
<polygon fill="none" stroke="black" points="486.55,-36 397.05,-36 397.05,0 486.55,0 486.55,-36"/>
<text text-anchor="middle" x="441.8" y="-12.95" font-family="Times,serif" font-size="14.00">emailfilter.cli</text>
</g>
<!-- emailfilter.cli&#45;&gt;emailfilter -->
<g id="edge1" class="edge">
<title>emailfilter.cli&#45;&gt;emailfilter</title>
<path fill="none" stroke="black" d="M396.61,-20.98C315,-25.35 147.21,-38.28 100.8,-72 80.6,-86.69 68.87,-113.09 62.49,-133.34"/>
<polygon fill="black" stroke="black" points="59.81,-142.67 58.24,-131.81 60.85,-139.03 62.57,-133.05 62.57,-133.05 62.57,-133.05 60.85,-139.03 66.89,-134.3 59.81,-142.67"/>
</g>
<!-- emailfilter.cli&#45;&gt;emailfilter.categorizer -->
<g id="edge2" class="edge">
<title>emailfilter.cli&#45;&gt;emailfilter.categorizer</title>
<path fill="none" stroke="black" d="M427.64,-36.15C420.11,-46.07 411.31,-59.11 405.8,-72 397.51,-91.43 392.7,-114.84 389.99,-132.78"/>
<polygon fill="black" stroke="black" points="388.67,-142.47 385.56,-131.95 389.18,-138.72 390.02,-132.56 390.02,-132.56 390.02,-132.56 389.18,-138.72 394.48,-133.17 388.67,-142.47"/>
</g>
<!-- emailfilter.email_processor -->
<g id="node5" class="node">
<title>emailfilter.email_processor</title>
<polygon fill="none" stroke="black" points="580.43,-108 415.18,-108 415.18,-72 580.43,-72 580.43,-108"/>
<text text-anchor="middle" x="497.8" y="-84.95" font-family="Times,serif" font-size="14.00">emailfilter.email_processor</text>
</g>
<!-- emailfilter.cli&#45;&gt;emailfilter.email_processor -->
<g id="edge3" class="edge">
<title>emailfilter.cli&#45;&gt;emailfilter.email_processor</title>
<path fill="none" stroke="black" d="M455.65,-36.3C462.16,-44.44 470.05,-54.31 477.24,-63.3"/>
<polygon fill="black" stroke="black" points="483.36,-70.94 473.6,-65.95 481,-67.99 477.11,-63.14 477.11,-63.14 477.11,-63.14 481,-67.99 480.63,-60.32 483.36,-70.94"/>
</g>
<!-- emailfilter.filter -->
<g id="node6" class="node">
<title>emailfilter.filter</title>
<polygon fill="none" stroke="black" points="1008.93,-108 906.68,-108 906.68,-72 1008.93,-72 1008.93,-108"/>
<text text-anchor="middle" x="957.8" y="-84.95" font-family="Times,serif" font-size="14.00">emailfilter.filter</text>
</g>
<!-- emailfilter.cli&#45;&gt;emailfilter.filter -->
<g id="edge4" class="edge">
<title>emailfilter.cli&#45;&gt;emailfilter.filter</title>
<path fill="none" stroke="black" d="M486.93,-22.22C568.48,-28.49 745.61,-44.24 892.8,-72 893.78,-72.18 894.77,-72.38 895.76,-72.57"/>
<polygon fill="black" stroke="black" points="905.31,-74.62 894.59,-76.92 901.62,-73.83 895.54,-72.53 895.54,-72.53 895.54,-72.53 901.62,-73.83 896.48,-68.13 905.31,-74.62"/>
</g>
<!-- emailfilter.models -->
<g id="node9" class="node">
<title>emailfilter.models</title>
<polygon fill="none" stroke="black" points="701.68,-252 585.93,-252 585.93,-216 701.68,-216 701.68,-252"/>
<text text-anchor="middle" x="643.8" y="-228.95" font-family="Times,serif" font-size="14.00">emailfilter.models</text>
</g>
<!-- emailfilter.cli&#45;&gt;emailfilter.models -->
<g id="edge5" class="edge">
<title>emailfilter.cli&#45;&gt;emailfilter.models</title>
<path fill="none" stroke="black" d="M486.94,-26.38C581.95,-42.93 797.32,-86.13 839.8,-144 876.54,-194.04 783.08,-216.62 712.91,-226.3"/>
<polygon fill="black" stroke="black" points="703.08,-227.58 712.42,-221.82 706.83,-227.09 713,-226.29 713,-226.29 713,-226.29 706.83,-227.09 713.58,-230.75 703.08,-227.58"/>
</g>
<!-- emailfilter.sqlite_state_manager -->
<g id="node10" class="node">
<title>emailfilter.sqlite_state_manager</title>
<polygon fill="none" stroke="black" points="301.18,-180 110.43,-180 110.43,-144 301.18,-144 301.18,-180"/>
<text text-anchor="middle" x="205.8" y="-156.95" font-family="Times,serif" font-size="14.00">emailfilter.sqlite_state_manager</text>
</g>
<!-- emailfilter.cli&#45;&gt;emailfilter.sqlite_state_manager -->
<g id="edge6" class="edge">
<title>emailfilter.cli&#45;&gt;emailfilter.sqlite_state_manager</title>
<path fill="none" stroke="black" d="M412.87,-36.41C370.46,-61.92 291.38,-109.51 244.17,-137.91"/>
<polygon fill="black" stroke="black" points="235.65,-143.04 241.9,-134.03 238.89,-141.09 244.22,-137.88 244.22,-137.88 244.22,-137.88 238.89,-141.09 246.54,-141.74 235.65,-143.04"/>
</g>
<!-- emailfilter.config_manager -->
<g id="node4" class="node">
<title>emailfilter.config_manager</title>
<polygon fill="none" stroke="black" points="637.05,-180 472.55,-180 472.55,-144 637.05,-144 637.05,-180"/>
<text text-anchor="middle" x="554.8" y="-156.95" font-family="Times,serif" font-size="14.00">emailfilter.config_manager</text>
</g>
<!-- emailfilter.config_manager&#45;&gt;emailfilter.models -->
<g id="edge7" class="edge">
<title>emailfilter.config_manager&#45;&gt;emailfilter.models</title>
<path fill="none" stroke="black" d="M576.8,-180.3C587.72,-188.89 601.08,-199.39 612.99,-208.76"/>
<polygon fill="black" stroke="black" points="620.79,-214.9 610.15,-212.25 617.82,-212.56 612.93,-208.72 612.93,-208.72 612.93,-208.72 617.82,-212.56 615.71,-205.18 620.79,-214.9"/>
</g>
<!-- emailfilter.email_processor&#45;&gt;emailfilter -->
<g id="edge8" class="edge">
<title>emailfilter.email_processor&#45;&gt;emailfilter</title>
<path fill="none" stroke="black" d="M414.9,-96.74C336.61,-103.37 215.99,-116.71 103.59,-143.88"/>
<polygon fill="black" stroke="black" points="93.92,-146.26 102.56,-139.5 97.6,-145.36 103.63,-143.87 103.63,-143.87 103.63,-143.87 97.6,-145.36 104.71,-148.24 93.92,-146.26"/>
</g>
<!-- emailfilter.email_processor&#45;&gt;emailfilter.categorizer -->
<g id="edge9" class="edge">
<title>emailfilter.email_processor&#45;&gt;emailfilter.categorizer</title>
<path fill="none" stroke="black" d="M470.08,-108.48C455.94,-117.4 438.55,-128.37 423.32,-137.97"/>
<polygon fill="black" stroke="black" points="415.2,-143.09 421.26,-133.95 418.4,-141.07 423.66,-137.76 423.66,-137.76 423.66,-137.76 418.4,-141.07 426.06,-141.56 415.2,-143.09"/>
</g>
<!-- emailfilter.email_processor&#45;&gt;emailfilter.config_manager -->
<g id="edge10" class="edge">
<title>emailfilter.email_processor&#45;&gt;emailfilter.config_manager</title>
<path fill="none" stroke="black" d="M511.89,-108.3C518.52,-116.44 526.56,-126.31 533.88,-135.3"/>
<polygon fill="black" stroke="black" points="540.11,-142.95 530.3,-138.04 537.72,-140.02 533.79,-135.2 533.79,-135.2 533.79,-135.2 537.72,-140.02 537.28,-132.36 540.11,-142.95"/>
</g>
<!-- emailfilter.imap_manager -->
<g id="node8" class="node">
<title>emailfilter.imap_manager</title>
<polygon fill="none" stroke="black" points="812.68,-180 654.93,-180 654.93,-144 812.68,-144 812.68,-180"/>
<text text-anchor="middle" x="733.8" y="-156.95" font-family="Times,serif" font-size="14.00">emailfilter.imap_manager</text>
</g>
<!-- emailfilter.email_processor&#45;&gt;emailfilter.imap_manager -->
<g id="edge11" class="edge">
<title>emailfilter.email_processor&#45;&gt;emailfilter.imap_manager</title>
<path fill="none" stroke="black" d="M556.75,-108.48C589.54,-118.21 630.52,-130.36 664.8,-140.53"/>
<polygon fill="black" stroke="black" points="674.03,-143.27 663.17,-144.74 670.41,-142.2 664.45,-140.43 664.45,-140.43 664.45,-140.43 670.41,-142.2 665.73,-136.11 674.03,-143.27"/>
</g>
<!-- emailfilter.email_processor&#45;&gt;emailfilter.models -->
<g id="edge12" class="edge">
<title>emailfilter.email_processor&#45;&gt;emailfilter.models</title>
<path fill="none" stroke="black" d="M580.75,-92.78C666.32,-96.58 791.45,-108.27 821.8,-144 858.02,-186.62 777.25,-210.93 712.97,-223.04"/>
<polygon fill="black" stroke="black" points="703.21,-224.8 712.25,-218.6 706.93,-224.13 713.05,-223.03 713.05,-223.03 713.05,-223.03 706.93,-224.13 713.85,-227.45 703.21,-224.8"/>
</g>
<!-- emailfilter.email_processor&#45;&gt;emailfilter.sqlite_state_manager -->
<g id="edge13" class="edge">
<title>emailfilter.email_processor&#45;&gt;emailfilter.sqlite_state_manager</title>
<path fill="none" stroke="black" d="M424.87,-108.48C383.68,-118.36 332.04,-130.74 289.24,-141"/>
<polygon fill="black" stroke="black" points="279.75,-143.27 288.42,-136.57 283.43,-142.39 289.47,-140.94 289.47,-140.94 289.47,-140.94 283.43,-142.39 290.52,-145.32 279.75,-143.27"/>
</g>
<!-- emailfilter.imap_client -->
<g id="node7" class="node">
<title>emailfilter.imap_client</title>
<polygon fill="none" stroke="black" points="250.05,-108 109.55,-108 109.55,-72 250.05,-72 250.05,-108"/>
<text text-anchor="middle" x="179.8" y="-84.95" font-family="Times,serif" font-size="14.00">emailfilter.imap_client</text>
</g>
<!-- emailfilter.imap_client&#45;&gt;emailfilter -->
<g id="edge14" class="edge">
<title>emailfilter.imap_client&#45;&gt;emailfilter</title>
<path fill="none" stroke="black" d="M148.83,-108.48C132.88,-117.49 113.24,-128.58 96.12,-138.24"/>
<polygon fill="black" stroke="black" points="87.44,-143.14 93.94,-134.31 90.73,-141.28 96.15,-138.22 96.15,-138.22 96.15,-138.22 90.73,-141.28 98.36,-142.14 87.44,-143.14"/>
</g>
<!-- emailfilter.imap_client&#45;&gt;emailfilter.categorizer -->
<g id="edge15" class="edge">
<title>emailfilter.imap_client&#45;&gt;emailfilter.categorizer</title>
<path fill="none" stroke="black" d="M231.5,-108.48C259.89,-118.08 295.28,-130.05 325.11,-140.14"/>
<polygon fill="black" stroke="black" points="334.25,-143.23 323.33,-144.29 330.67,-142.02 324.78,-140.02 324.78,-140.02 324.78,-140.02 330.67,-142.02 326.22,-135.76 334.25,-143.23"/>
</g>
<!-- emailfilter.imap_client&#45;&gt;emailfilter.models -->
<g id="edge16" class="edge">
<title>emailfilter.imap_client&#45;&gt;emailfilter.models</title>
<path fill="none" stroke="black" d="M109.34,-102.92C47.97,-116.2 -26,-141.08 9.8,-180 47.46,-220.93 418.32,-230.26 574.76,-232.38"/>
<polygon fill="black" stroke="black" points="584.43,-232.51 574.37,-236.88 580.65,-232.46 574.43,-232.38 574.43,-232.38 574.43,-232.38 580.65,-232.46 574.49,-227.88 584.43,-232.51"/>
</g>
<!-- emailfilter.imap_client&#45;&gt;emailfilter.sqlite_state_manager -->
<g id="edge17" class="edge">
<title>emailfilter.imap_client&#45;&gt;emailfilter.sqlite_state_manager</title>
<path fill="none" stroke="black" d="M186.23,-108.3C189.06,-115.93 192.46,-125.08 195.63,-133.6"/>
<polygon fill="black" stroke="black" points="199.03,-142.75 191.33,-134.95 197.71,-139.21 195.54,-133.38 195.54,-133.38 195.54,-133.38 197.71,-139.21 199.76,-131.81 199.03,-142.75"/>
</g>
<!-- emailfilter.imap_manager&#45;&gt;emailfilter.models -->
<g id="edge18" class="edge">
<title>emailfilter.imap_manager&#45;&gt;emailfilter.models</title>
<path fill="none" stroke="black" d="M711.56,-180.3C700.41,-188.97 686.75,-199.6 674.61,-209.04"/>
<polygon fill="black" stroke="black" points="667.07,-214.91 672.2,-205.21 670.05,-212.58 674.96,-208.77 674.96,-208.77 674.96,-208.77 670.05,-212.58 677.73,-212.32 667.07,-214.91"/>
</g>
<!-- emailfilter.sqlite_state_manager&#45;&gt;emailfilter.models -->
<g id="edge19" class="edge">
<title>emailfilter.sqlite_state_manager&#45;&gt;emailfilter.models</title>
<path fill="none" stroke="black" d="M301.57,-178.67C304.35,-179.12 307.09,-179.56 309.8,-180 401.36,-194.75 507.09,-211.47 574.65,-222.12"/>
<polygon fill="black" stroke="black" points="584.36,-223.65 573.78,-226.54 580.63,-223.06 574.48,-222.1 574.48,-222.1 574.48,-222.1 580.63,-223.06 575.18,-217.65 584.36,-223.65"/>
</g>
</g>
</svg>
